<?xml version="1.0" standalone="no"?>
<!DOCTYPE svg PUBLIC "-//W3C//DTD SVG 20010904//EN"
 "http://www.w3.org/TR/2001/REC-SVG-20010904/DTD/svg10.dtd">
<svg version="1.0" xmlns="http://www.w3.org/2000/svg"
 width="512.000000pt" height="512.000000pt" viewBox="0 0 512.000000 512.000000"
 preserveAspectRatio="xMidYMid meet">
<metadata>
Created by potrace 1.14, written by Peter Selinger 2001-2017
</metadata>
<g transform="translate(0.000000,512.000000) scale(0.100000,-0.100000)"
fill="#000000" stroke="none">
<path d="M2874 5105 c-153 -41 -288 -177 -324 -326 -56 -231 72 -462 299 -540
53 -19 166 -26 216 -15 102 22 164 55 237 126 91 88 138 208 132 337 -8 188
-126 345 -308 409 -57 21 -190 25 -252 9z"/>
<path d="M3785 4264 c-5 -1 -66 -5 -135 -8 -142 -6 -161 -8 -285 -42 -143 -38
-295 -99 -450 -180 -170 -88 -184 -97 -216 -128 -16 -16 -128 -166 -247 -334
l-217 -304 -175 -85 c-471 -230 -467 -228 -503 -301 -73 -148 21 -314 185
-326 59 -4 78 3 416 170 163 80 316 155 339 166 23 11 50 32 59 46 10 15 22
32 28 39 6 7 47 64 91 127 44 63 82 115 85 116 3 0 6 -21 6 -47 1 -27 4 -100
7 -163 7 -117 13 -229 22 -400 3 -66 17 -145 46 -255 22 -88 42 -162 44 -164
3 -2 -7 -18 -22 -35 -26 -31 -136 -156 -163 -186 -8 -9 -44 -50 -80 -91 -36
-41 -70 -79 -75 -85 -32 -34 -131 -150 -266 -314 -84 -102 -229 -277 -323
-390 -93 -113 -188 -227 -210 -255 -22 -27 -43 -52 -46 -55 -22 -20 -340 -413
-358 -441 -72 -118 -8 -286 124 -325 92 -27 172 -6 236 62 32 34 187 219 285
340 18 22 46 56 61 75 16 19 107 129 203 244 259 313 604 727 631 755 12 14
47 53 76 88 30 34 58 62 63 62 4 0 11 -16 15 -35 3 -19 10 -38 15 -40 4 -3 95
-30 201 -60 106 -31 211 -62 233 -69 22 -8 78 -26 125 -41 129 -40 392 -136
420 -154 14 -8 45 -32 70 -52 76 -63 161 -75 245 -35 57 26 74 43 106 105 32
62 30 140 -4 208 -72 140 -246 221 -937 434 -36 11 -72 24 -80 29 -13 8 -39
86 -40 121 0 15 49 75 157 190 29 31 53 59 53 62 0 4 13 28 29 55 55 88 141
310 221 567 16 53 78 308 94 390 23 116 23 112 35 210 10 77 17 119 20 133 1
2 72 -34 159 -79 l159 -82 24 -81 c27 -95 23 -78 48 -191 22 -104 23 -290 1
-365 -29 -101 19 -208 113 -255 73 -35 131 -35 203 0 90 44 127 118 152 302
11 85 5 258 -13 343 -3 14 -8 41 -11 60 -16 107 -78 313 -132 445 l-27 66
-100 53 c-55 29 -194 101 -310 161 -115 59 -252 130 -304 157 -97 52 -159 77
-176 72z"/>
<path d="M650 1068 c-30 -5 -86 -23 -125 -42 -291 -138 -358 -524 -131 -758
66 -67 148 -111 256 -135 8 -2 47 -3 87 -4 253 -1 465 210 466 465 1 302 -253
519 -553 474z"/>
</g>
</svg>
